# xmcd
#
# Track frame offsets: 
#        150
#        18600
#        43487
#        64275
#
# Disc length: 1136 seconds
#
# Revision: 0
# Processed by: cddbd v1.5.2PL0 Copyright (c) Steve Scherf et al.
# Submitted via: ExactAudioCopy v0.99pb3
#
DISCID=39046e04
DTITLE=Ronny Jordan - Get To Grips (Single) with I.G. Culture for Dodg
DTITLE=e City Productions
DYEAR=1992
DGENRE=Blues
TTITLE0=Get To Grips (Single Version)
TTITLE1=Get To Grips (Cool Mix)
TTITLE2=Get To Grips (Rugged Mix)
TTITLE3=Flat Out
EXTD=
EXTT0=
EXTT1=
EXTT2=
EXTT3=
PLAYORDER=
